<?xml version="1.0" standalone="no"?>
<!DOCTYPE svg PUBLIC "-//W3C//DTD SVG 20010904//EN"
 "http://www.w3.org/TR/2001/REC-SVG-20010904/DTD/svg10.dtd">
<svg version="1.0" xmlns="http://www.w3.org/2000/svg"
 width="401.000000pt" height="344.000000pt" viewBox="0 0 401.000000 344.000000"
 preserveAspectRatio="xMidYMid meet">

<g transform="translate(0.000000,344.000000) scale(0.100000,-0.100000)"
fill="#000000" stroke="none">
<path d="M402 3152 l-393 -287 761 -3 760 -2 2 -1428 3 -1429 1097 937 c604
515 1101 940 1105 943 8 9 -20 -1 -900 -317 -361 -130 -660 -236 -662 -236 -3
0 -5 344 -5 765 l0 765 520 0 520 0 388 281 c213 155 391 285 396 290 6 5
-681 9 -1595 8 l-1604 0 -393 -287z"/>
</g>
</svg>
