<?xml version="1.0" standalone="no"?>
<!DOCTYPE svg PUBLIC "-//W3C//DTD SVG 20010904//EN"
 "http://www.w3.org/TR/2001/REC-SVG-20010904/DTD/svg10.dtd">
<svg version="1.0" xmlns="http://www.w3.org/2000/svg"
 width="756.000000pt" height="150.000000pt" viewBox="0 0 756.000000 150.000000"
 preserveAspectRatio="xMidYMid meet">

<g transform="translate(0.000000,150.000000) scale(0.100000,-0.100000)"
fill="#000000" stroke="none">
<path d="M271 1310 l-164 -120 317 0 316 0 2 -594 3 -594 445 379 c245 209
452 387 460 395 13 14 11 14 -25 0 -85 -33 -600 -216 -607 -216 -5 0 -8 142
-8 315 l0 315 218 0 217 0 164 120 163 120 -668 0 -669 -1 -164 -119z"/>
<path d="M1736 743 c-170 -379 -311 -694 -313 -700 -4 -10 28 -13 140 -13
l144 0 65 142 c36 79 143 324 239 545 96 222 177 403 180 403 3 0 62 -129 131
-287 l125 -288 -165 -5 -164 -5 -43 -123 -43 -122 263 0 263 0 57 -130 58
-130 144 0 c78 0 143 3 143 8 0 4 -139 318 -310 697 l-309 690 -148 3 -149 2
-308 -687z"/>
<path d="M3402 1410 c-121 -32 -226 -93 -317 -185 -89 -90 -135 -160 -171
-263 -117 -337 34 -707 351 -863 133 -65 170 -71 443 -76 l242 -5 0 126 0 126
-225 0 c-201 0 -232 2 -287 21 -128 43 -216 121 -275 245 -83 174 -45 383 95
521 61 60 152 108 231 123 29 5 145 10 257 10 l204 0 0 120 0 120 -237 -1
c-201 0 -249 -3 -311 -19z"/>
<path d="M4060 730 l0 -700 135 0 135 0 2 293 3 293 260 -293 260 -292 168 -1
c92 0 167 4 167 8 0 4 -138 160 -307 346 -170 186 -308 342 -308 346 0 4 135
157 300 340 165 184 304 339 308 347 7 11 -23 13 -160 13 l-168 -1 -260 -300
-260 -301 -3 301 -2 301 -135 0 -135 0 0 -700z"/>
<path d="M5300 730 l0 -700 495 0 495 0 0 120 0 120 -360 0 -360 0 0 580 0
580 -135 0 -135 0 0 -700z"/>
<path d="M6400 730 l0 -700 525 0 525 0 0 130 0 130 -395 0 -395 0 0 155 0
155 380 0 380 0 0 125 0 125 -380 0 -380 0 0 160 0 160 395 0 395 0 0 130 0
130 -525 0 -525 0 0 -700z"/>
</g>
</svg>
